<svg xmlns="http://www.w3.org/2000/svg" viewBox="0 0 128 128"><defs><style>.cls-1{isolation:isolate;}.cls-2{mix-blend-mode:darken;}.cls-3{fill:#f2a78c;}.cls-4{fill:#4d5db1;opacity:0.06;mix-blend-mode:multiply;}.cls-5{fill:none;stroke:#fff;stroke-linecap:round;stroke-linejoin:round;stroke-width:2px;}.cls-6{fill:#dd8878;}.cls-7{fill:#f4dd7d;}</style></defs><title>ringed-planet</title><g class="cls-1"><g id="icons" class="cls-2"><path class="cls-3" d="M46.71,100.08a250,250,0,0,0,28.6-24.77,248.85,248.85,0,0,0,24.76-28.62,40,40,0,1,0-53.36,53.39Z"/><path class="cls-3" d="M80.31,80.31a256,256,0,0,1-25.66,22.58,40,40,0,0,0,48.23-48.26A254.62,254.62,0,0,1,80.31,80.31Z"/><path class="cls-4" d="M52,92h.83c-3.28,2.23-6.54,4.26-9.75,6.1A40.11,40.11,0,0,1,30.36,85.64,39.84,39.84,0,0,0,52,92Z"/><path class="cls-4" d="M92,52a39.83,39.83,0,0,0-6.36-21.64A40.09,40.09,0,0,1,98.11,43.12c-1.84,3-3.87,6.17-6.11,9.36Z"/><path class="cls-4" d="M104,64a40,40,0,0,1-49.35,38.9A256.91,256.91,0,0,0,80.31,80.31a254.5,254.5,0,0,0,22.58-25.68A39.6,39.6,0,0,1,104,64Z"/><path class="cls-4" d="M32.88,89.12a39.85,39.85,0,0,0,13.35,7.11q-1.59,1-3.15,1.86A40,40,0,0,1,32.88,89.12Z"/><path class="cls-4" d="M96.21,46.17a39.8,39.8,0,0,0-7.09-13.29,39.81,39.81,0,0,1,9,10.23C97.51,44.12,96.87,45.14,96.21,46.17Z"/><path class="cls-4" d="M104,64a40,40,0,0,1-49.35,38.9q3.12-2.38,6.32-5A40,40,0,0,0,97.89,61c1.75-2.12,3.41-4.23,5-6.32A39.66,39.66,0,0,1,104,64Z"/><path class="cls-5" d="M53.94,30.47a34.7,34.7,0,0,0-8.1,3.61"/><path class="cls-5" d="M39,39.5a35,35,0,0,0-8.53,14.44"/><circle class="cls-6" cx="42" cy="70" r="4"/><circle class="cls-6" cx="79" cy="58" r="3"/><circle class="cls-6" cx="57" cy="45" r="2"/><path class="cls-7" d="M118,10c-5.55-5.54-21.34.59-40.18,14.3a41.88,41.88,0,0,1,11.8,6.38,108.08,108.08,0,0,1,12.3-7.24,2,2,0,0,1,2.67,2.68c-5.07,10.13-16,26.07-34.15,44.26C51.62,89.2,36,99.66,26.11,104.53a2,2,0,0,1-2.67-2.68,111.4,111.4,0,0,1,7.28-12.24,41.88,41.88,0,0,1-6.39-11.82C10.62,96.63,4.49,112.42,10,118c8.23,8.22,39.06-9.27,68.87-39.07S126.19,18.26,118,10Z"/><path class="cls-4" d="M118,10c-2.11-2.11-5.71-2.52-10.39-1.47A6.4,6.4,0,0,1,110,10c8.22,8.23-9.27,39.06-39.07,68.87C48.74,101.06,26,116.4,12.44,119.44c10.75,3.87,39-13.11,66.46-40.54C108.7,49.09,126.19,18.26,118,10Z"/><path class="cls-4" d="M118,10c-1.74-1.74-4.5-2.32-8-1.89A7.08,7.08,0,0,1,114,10c8.22,8.23-9.27,39.06-39.07,68.87-23.53,23.52-47.68,39.36-60.86,41,11.77,1.86,38.71-14.81,64.86-41C108.7,49.09,126.19,18.26,118,10Z"/></g></g></svg>